<?xml version="1.0" standalone="no"?>
<!DOCTYPE svg PUBLIC "-//W3C//DTD SVG 20010904//EN"
 "http://www.w3.org/TR/2001/REC-SVG-20010904/DTD/svg10.dtd">
<svg version="1.0" xmlns="http://www.w3.org/2000/svg"
 width="1200.000000pt" height="1200.000000pt" viewBox="0 0 1200.000000 1200.000000"
 preserveAspectRatio="xMidYMid meet">
<metadata>
Created by potrace 1.14, written by Peter Selinger 2001-2017
</metadata>
<g transform="translate(0.000000,1200.000000) scale(0.100000,-0.100000)"
fill="#000000" stroke="none">
<path d="M4423 11462 c-6 -4 -15 -32 -18 -62 -4 -30 -13 -77 -20 -105 -8 -27
-16 -77 -20 -110 -4 -33 -13 -85 -20 -115 -7 -30 -17 -86 -21 -125 -3 -38 -11
-81 -15 -94 -5 -13 -16 -70 -24 -127 -8 -57 -21 -117 -30 -134 -16 -30 -56
-53 -180 -101 -33 -13 -67 -29 -76 -36 -8 -7 -19 -13 -24 -13 -9 0 -110 -45
-135 -60 -8 -5 -46 -25 -85 -45 -229 -117 -430 -243 -673 -422 -31 -23 -63
-48 -71 -55 -8 -7 -62 -51 -120 -98 -229 -185 -487 -444 -658 -659 -42 -53
-83 -103 -90 -111 -43 -48 -263 -361 -263 -374 0 -3 -17 -31 -38 -63 -51 -78
-60 -93 -78 -128 -8 -16 -26 -48 -39 -70 -29 -49 -155 -301 -185 -370 -12 -27
-25 -57 -30 -66 -7 -14 -90 -225 -125 -319 -21 -56 -45 -131 -60 -185 -7 -27
-18 -63 -24 -80 -15 -41 -39 -136 -55 -215 -7 -36 -18 -76 -23 -90 -6 -14 -13
-52 -17 -85 -4 -33 -13 -82 -21 -110 -7 -27 -16 -81 -20 -120 -4 -38 -13 -92
-20 -120 -18 -66 -36 -371 -37 -615 0 -211 17 -536 32 -613 18 -88 27 -74
-145 -232 -220 -201 -261 -240 -336 -309 -41 -39 -98 -92 -126 -118 -28 -26
-54 -56 -58 -67 -6 -20 9 -59 49 -126 14 -22 32 -53 40 -70 9 -16 27 -48 40
-70 14 -22 32 -53 41 -70 8 -16 27 -48 40 -70 14 -22 32 -53 41 -70 8 -16 26
-48 40 -70 13 -22 31 -53 40 -70 8 -16 25 -47 37 -67 12 -20 76 -129 142 -243
66 -114 130 -223 142 -243 12 -21 29 -50 37 -67 9 -16 27 -48 40 -70 14 -22
32 -53 41 -70 8 -16 27 -48 40 -70 13 -22 32 -55 42 -72 16 -30 226 -391 280
-481 12 -20 29 -50 37 -67 9 -16 27 -48 41 -70 13 -22 32 -53 40 -70 9 -16 26
-47 38 -67 12 -20 66 -113 120 -205 119 -205 114 -196 155 -261 33 -53 53 -62
90 -43 9 5 43 18 75 29 91 33 156 57 237 87 41 15 99 36 127 47 29 10 77 28
108 39 30 11 81 29 112 40 32 12 72 28 90 36 40 19 68 12 115 -29 37 -32 63
-52 223 -167 93 -66 278 -183 360 -226 17 -9 66 -36 110 -60 44 -25 91 -49
105 -55 14 -5 32 -15 40 -20 8 -6 26 -15 40 -21 14 -5 44 -19 68 -30 51 -23
116 -52 180 -80 26 -11 61 -26 77 -33 17 -8 64 -26 105 -41 41 -15 91 -33 110
-40 61 -23 134 -46 187 -60 28 -7 57 -16 64 -21 8 -4 41 -14 74 -21 72 -15
172 -39 240 -58 28 -7 75 -16 105 -20 30 -4 78 -13 105 -20 28 -8 84 -17 125
-20 41 -4 113 -14 160 -23 127 -25 984 -25 1110 0 47 9 119 20 160 23 41 4 98
13 125 20 28 8 75 17 105 20 30 4 78 13 105 20 73 20 173 44 230 56 28 5 66
16 85 24 19 8 53 19 75 24 42 10 116 34 175 56 19 7 69 25 110 40 41 15 86 33
100 40 14 7 39 15 55 19 31 7 67 23 190 82 39 18 81 38 95 43 14 6 32 15 40
21 8 5 26 14 40 20 14 5 32 14 40 19 8 6 83 48 166 95 132 74 400 245 414 264
3 4 25 20 50 37 25 16 62 43 82 59 26 20 44 27 60 23 50 -12 135 -36 163 -46
48 -17 126 -41 180 -56 28 -7 68 -20 90 -29 22 -8 48 -15 57 -16 10 0 32 -6
50 -14 18 -8 74 -27 123 -42 50 -14 114 -35 144 -45 48 -18 56 -18 77 -4 12 8
40 44 61 81 21 36 48 82 60 102 12 21 29 51 38 67 8 17 27 48 40 70 13 22 32
54 42 72 17 30 230 397 280 481 12 20 29 51 38 67 8 17 27 48 40 70 13 22 32
55 42 72 19 34 283 489 320 551 12 20 29 51 37 67 9 17 27 48 40 70 14 22 32
54 41 70 8 17 27 48 40 70 13 22 32 55 42 72 19 34 361 626 400 691 58 98 56
110 -34 183 -37 29 -74 61 -83 69 -8 8 -65 55 -125 104 -61 49 -114 94 -120
100 -5 6 -59 52 -120 101 -161 130 -155 123 -155 175 0 25 7 79 14 120 27 137
39 559 26 852 -6 145 -17 292 -25 328 -7 36 -16 101 -20 145 -3 44 -13 103
-20 130 -8 28 -17 75 -20 105 -4 30 -13 78 -20 105 -8 28 -21 79 -30 115 -31
126 -44 176 -70 260 -14 47 -32 107 -40 133 -7 26 -18 53 -23 60 -5 7 -13 28
-17 47 -4 19 -13 46 -20 60 -7 14 -27 63 -45 109 -17 46 -35 91 -40 100 -5 9
-21 43 -35 76 -35 77 -150 308 -180 360 -13 22 -31 54 -40 70 -31 57 -51 90
-86 145 -20 30 -47 73 -60 96 -69 118 -364 497 -490 630 -187 197 -337 339
-484 459 -60 49 -118 96 -127 104 -9 9 -42 34 -72 56 -31 22 -75 54 -99 71
-75 55 -237 164 -244 164 -3 0 -29 15 -57 34 -90 59 -469 256 -493 256 -6 0
-16 6 -22 14 -7 8 -24 17 -39 21 -37 9 -149 62 -156 74 -4 5 -10 29 -15 53
-11 53 -38 169 -52 223 -6 22 -16 72 -23 110 -8 39 -18 81 -23 95 -6 14 -14
50 -18 80 -4 30 -13 71 -20 90 -7 19 -16 60 -20 90 -9 66 -41 161 -58 172 -15
10 -3188 10 -3204 0z m2948 -260 c4 -4 11 -27 17 -52 55 -256 186 -797 195
-806 7 -6 77 -37 157 -69 601 -242 1090 -565 1546 -1020 325 -325 574 -656
797 -1060 257 -468 449 -1055 521 -1595 32 -238 36 -320 37 -634 0 -333 -9
-458 -51 -724 -11 -67 -20 -130 -20 -140 0 -10 45 -55 108 -107 101 -85 146
-123 426 -359 84 -71 116 -104 113 -116 -2 -10 -100 -184 -218 -386 -117 -203
-285 -495 -374 -649 -436 -756 -734 -1267 -749 -1283 -9 -10 -20 -9 -51 2 -42
16 -702 217 -769 235 -38 10 -39 10 -137 -69 -136 -109 -294 -222 -364 -263
-33 -19 -109 -65 -170 -102 -149 -90 -477 -251 -660 -324 -372 -146 -719 -235
-1148 -293 -118 -15 -228 -21 -492 -25 -305 -5 -360 -3 -535 17 -796 89 -1459
330 -2115 766 -132 88 -369 266 -426 320 -14 13 -32 24 -41 24 -8 0 -58 -16
-109 -35 -533 -201 -692 -256 -704 -243 -11 11 -215 359 -453 773 -171 296
-605 1048 -743 1286 -82 141 -149 261 -149 267 0 5 15 23 34 39 19 15 165 151
326 302 261 245 291 276 285 299 -44 176 -73 708 -55 1032 41 750 234 1416
597 2060 523 926 1405 1678 2398 2045 55 20 105 42 112 48 11 12 47 194 119
617 20 118 40 220 44 225 10 12 2690 9 2701 -3z"/>
<path d="M5818 9483 l-3 -258 -140 -16 c-1355 -155 -2447 -1094 -2795 -2404
-72 -272 -104 -527 -104 -830 1 -477 94 -908 288 -1334 31 -68 56 -130 56
-136 0 -7 -105 -73 -232 -145 -128 -73 -239 -139 -246 -145 -15 -14 5 -61 78
-180 21 -35 51 -87 65 -114 14 -28 31 -51 38 -51 6 0 120 63 252 140 132 77
245 140 252 140 7 0 26 -21 43 -46 58 -84 189 -242 277 -336 278 -295 566
-509 928 -688 340 -169 617 -256 1005 -317 145 -22 688 -26 840 -5 594 81
1167 323 1622 684 202 160 473 445 618 650 30 43 59 78 64 78 5 0 120 -63 254
-141 236 -136 245 -140 262 -122 19 20 180 299 180 312 0 4 -48 36 -107 71
-327 191 -383 226 -383 237 0 6 27 72 59 145 186 421 273 841 274 1318 0 452
-83 855 -259 1270 -288 676 -819 1252 -1464 1589 -380 198 -743 310 -1160 358
l-155 18 -3 258 -2 257 -200 0 -200 0 -2 -257z m2 -1432 l0 -578 -215 -5
c-119 -3 -219 -8 -223 -12 -7 -8 31 -85 298 -601 94 -181 210 -405 257 -497
47 -93 88 -168 92 -168 3 0 65 114 136 252 72 139 194 376 273 528 199 384
246 479 240 486 -4 3 -107 7 -230 10 l-223 4 -3 581 -2 582 72 -8 c169 -16
432 -75 599 -133 289 -102 599 -276 819 -460 115 -97 303 -288 390 -397 546
-688 718 -1615 454 -2450 -32 -102 -120 -326 -137 -349 -12 -16 -16 -15 -67
12 -119 64 -856 494 -870 508 -17 17 -18 16 118 251 45 78 82 143 82 146 0 2
-87 7 -192 11 -106 3 -245 11 -308 16 -63 6 -227 14 -365 20 -137 5 -321 13
-409 16 l-159 7 29 -49 c29 -50 732 -1145 741 -1154 5 -6 -2 -18 133 210 60
102 114 184 118 183 9 -2 248 -139 690 -396 133 -78 242 -144 242 -149 0 -4
-33 -51 -74 -105 -95 -126 -357 -390 -477 -480 -384 -288 -791 -462 -1234
-527 -424 -63 -848 -24 -1265 116 -237 80 -548 249 -772 419 -169 129 -549
543 -522 568 5 5 113 68 239 141 127 73 316 182 420 242 105 61 209 121 232
134 l42 24 54 -92 c30 -51 79 -135 108 -187 30 -52 59 -96 64 -98 6 -1 79 104
163 235 423 654 488 755 549 855 36 60 63 110 61 112 -2 2 -62 0 -133 -6 -72
-5 -240 -13 -375 -19 -135 -5 -319 -14 -410 -20 -91 -5 -243 -12 -337 -16 -95
-4 -173 -11 -173 -15 0 -5 44 -84 99 -176 141 -242 136 -229 109 -247 -64 -40
-918 -526 -925 -526 -11 0 -95 201 -138 328 -204 604 -187 1248 47 1837 136
341 322 620 597 896 176 176 313 285 490 391 194 115 426 219 616 276 137 41
438 99 523 101 l42 1 0 -579z"/>
<path d="M8494 3696 c-167 -179 -184 -205 -184 -280 0 -82 84 -173 169 -183
84 -10 180 49 167 102 -8 30 -34 33 -68 6 -36 -29 -71 -34 -111 -18 -41 18
-66 51 -74 101 -5 32 0 42 51 106 31 38 60 70 65 70 4 0 56 -46 116 -102 l108
-101 24 29 c12 16 23 32 23 35 0 4 -17 22 -37 40 -21 18 -69 61 -106 95 l-69
63 21 30 c12 16 21 33 21 38 0 10 -32 43 -42 43 -2 0 -36 -33 -74 -74z"/>
<path d="M3378 3743 c-38 -24 -51 -61 -48 -140 5 -123 0 -127 -71 -57 -46 46
-47 46 -73 29 -14 -10 -26 -22 -26 -29 0 -21 105 -124 133 -132 34 -8 103 20
118 48 6 11 10 56 9 101 -2 112 -1 117 10 117 6 0 30 -18 55 -41 46 -43 78
-48 83 -14 1 13 -17 41 -51 78 -59 63 -88 71 -139 40z"/>
<path d="M8816 3627 c-26 -19 -18 -71 12 -75 50 -7 69 46 26 74 -17 12 -23 12
-38 1z"/>
<path d="M3504 3518 c-70 -47 -96 -97 -91 -175 2 -52 8 -69 34 -100 38 -47 57
-52 79 -18 16 25 16 27 -5 49 -12 13 -26 40 -32 60 -18 65 9 75 61 21 25 -26
42 -35 60 -33 41 5 37 35 -11 84 -40 41 -42 45 -27 60 14 14 22 15 49 5 18 -6
43 -21 56 -33 21 -20 24 -20 48 -4 31 21 31 31 0 62 -62 62 -148 71 -221 22z"/>
<path d="M8190 3394 c-86 -73 -80 -199 14 -282 63 -55 139 -61 215 -16 40 24
49 51 24 76 -20 19 -20 19 -58 -6 -42 -29 -72 -33 -99 -13 -17 13 -16 16 28
52 50 43 61 79 26 90 -15 5 -33 -4 -66 -30 -45 -37 -74 -41 -74 -9 0 26 31 84
51 95 24 12 24 31 1 52 -24 22 -25 22 -62 -9z"/>
<path d="M3737 3356 c-74 -27 -128 -103 -129 -181 -2 -76 79 -184 119 -159 37
23 38 41 6 72 -54 50 -56 111 -5 162 15 15 45 30 66 34 38 7 39 7 103 -39 10
-7 19 -4 33 15 19 25 42 21 25 -5 -6 -8 -41 -58 -79 -112 -55 -79 -69 -105
-69 -135 0 -46 37 -98 86 -122 79 -37 118 -14 214 126 40 59 75 112 78 120 6
16 -46 50 -61 40 -5 -4 -40 -50 -76 -103 -82 -117 -91 -126 -123 -111 -50 23
-43 52 39 172 43 61 74 115 70 121 -3 6 -25 19 -48 30 -22 11 -59 33 -81 49
-49 36 -113 46 -168 26z"/>
<path d="M7994 3237 c-116 -80 -130 -93 -118 -113 19 -32 41 -40 62 -21 10 9
25 17 33 17 8 -1 50 -52 94 -115 44 -63 84 -115 90 -115 7 0 21 10 33 23 l22
23 -80 115 c-44 63 -80 120 -80 127 0 7 11 18 25 24 14 6 25 16 25 22 0 14
-29 56 -38 56 -4 0 -35 -20 -68 -43z"/>
<path d="M7751 3075 c-91 -29 -155 -136 -132 -221 47 -171 250 -212 352 -71
29 39 31 47 27 114 -3 62 -7 77 -34 110 -53 66 -135 93 -213 68z m130 -104
c34 -33 39 -45 39 -83 0 -55 -26 -92 -74 -108 -69 -22 -146 37 -146 112 0 50
13 74 53 98 50 31 84 26 128 -19z"/>
<path d="M4223 3069 c-21 -6 -43 -25 -61 -52 -37 -55 -122 -212 -122 -226 0
-6 13 -17 29 -25 l29 -15 42 72 c107 182 130 204 164 155 21 -30 4 -58 -35
-58 -62 0 -92 -41 -49 -68 27 -16 25 -44 -5 -92 -14 -22 -25 -47 -25 -55 0
-14 37 -35 61 -35 14 0 69 117 69 149 0 20 8 34 25 45 14 9 33 32 42 51 22 45
9 89 -37 126 -41 33 -82 42 -127 28z"/>
<path d="M7399 2917 c-45 -30 -61 -63 -56 -115 l5 -44 -27 32 c-68 82 -221 26
-221 -80 0 -35 73 -264 91 -284 8 -9 69 11 69 23 0 3 -19 61 -41 127 -43 126
-46 165 -12 178 22 9 67 -24 71 -51 2 -13 -9 -30 -29 -47 -29 -25 -30 -28 -19
-56 7 -17 19 -30 28 -30 8 0 35 20 59 45 44 43 45 46 39 92 -5 46 -3 43 49
-62 47 -96 58 -110 77 -107 51 6 53 23 10 118 -74 166 -76 172 -62 189 16 20
54 19 71 -1 11 -14 10 -21 -4 -46 -9 -16 -17 -42 -17 -58 0 -27 2 -29 43 -27
40 2 43 0 64 -42 30 -59 37 -65 67 -57 19 5 26 13 26 32 0 38 -47 123 -76 136
-17 8 -23 17 -18 30 9 29 -15 86 -46 108 -38 27 -98 26 -141 -3z"/>
<path d="M4445 2916 c-43 -19 -92 -78 -106 -128 -23 -89 10 -169 87 -209 44
-24 45 -24 60 -5 22 31 17 51 -20 69 -27 12 -38 26 -47 57 -7 22 -10 42 -7 45
3 3 31 -6 62 -21 64 -29 86 -26 86 11 0 21 -10 30 -55 52 -30 15 -55 33 -55
40 0 22 57 30 127 18 40 -7 42 -6 49 20 8 31 1 38 -45 54 -44 14 -99 13 -136
-3z"/>
<path d="M4967 2726 c-78 -28 -126 -102 -127 -191 0 -86 52 -147 151 -175 23
-7 31 -5 39 10 20 37 12 57 -25 64 -40 8 -73 48 -81 98 -6 38 26 95 66 116 24
12 66 11 102 -3 11 -4 20 0 28 15 16 31 4 58 -30 64 -74 14 -87 15 -123 2z"/>
<path d="M5225 2680 c-39 -12 -99 -75 -114 -119 -26 -78 -3 -162 58 -214 88
-74 221 -54 282 42 24 38 29 55 29 111 0 76 -25 123 -84 160 -40 24 -125 34
-171 20z m118 -81 c39 -20 57 -51 57 -102 0 -42 -5 -54 -34 -83 -27 -27 -42
-34 -74 -34 -104 0 -149 125 -72 201 31 31 82 39 123 18z"/>
<path d="M6718 2683 c-22 -5 -22 -2 -2 -114 8 -49 14 -95 12 -100 -2 -6 -27
23 -55 64 -54 77 -104 127 -128 127 -7 0 -23 -8 -35 -18 -25 -20 -25 -29 15
-252 23 -126 21 -123 62 -117 20 4 37 8 39 10 2 2 -5 57 -16 122 -17 100 -20
142 -7 124 1 -2 19 -29 38 -59 96 -148 137 -181 183 -147 17 12 16 21 -13 181
-17 92 -33 172 -37 177 -5 9 -26 10 -56 2z"/>
<path d="M5542 2621 c-9 -6 -20 -64 -33 -177 -17 -159 -17 -170 -1 -182 37
-28 56 -11 69 58 7 36 12 91 13 123 0 64 11 73 28 25 39 -116 75 -205 89 -220
19 -21 56 -24 71 -5 6 7 16 64 22 127 16 170 13 162 63 158 l42 -3 -4 -147 -4
-147 27 -7 c46 -11 56 0 56 64 0 32 3 100 6 150 7 92 7 92 34 92 l27 0 7 -136
c4 -74 10 -142 13 -150 3 -9 20 -14 45 -14 l41 0 -9 98 c-8 99 -7 189 2 204 3
4 21 8 39 8 38 0 55 -20 55 -64 0 -23 -4 -26 -34 -26 -41 0 -60 -21 -52 -55 5
-21 12 -25 46 -25 l39 0 3 -62 3 -63 44 -3 43 -3 -3 144 c-4 139 -5 145 -32
180 -38 51 -94 66 -159 43 -26 -9 -58 -14 -70 -12 -13 3 -91 7 -174 10 l-151
5 -7 -77 c-4 -42 -10 -93 -14 -112 l-8 -35 -23 68 c-12 38 -33 93 -47 123 -22
50 -26 54 -56 54 -18 0 -39 -4 -46 -9z"/>
<path d="M6376 2621 c-4 -5 1 -72 10 -148 9 -76 17 -156 18 -178 2 -36 5 -40
32 -43 55 -4 57 2 43 134 -6 65 -17 146 -23 179 -10 57 -12 60 -43 63 -17 2
-34 -1 -37 -7z"/>
<path d="M4564 2566 c-9 -38 -1 -61 24 -64 29 -4 52 14 52 42 0 48 -65 66 -76
22z"/>
<path d="M6906 2398 c-13 -19 -14 -25 -2 -43 16 -25 65 -27 79 -3 8 12 8 24
-1 42 -15 33 -55 35 -76 4z"/>
</g>
</svg>
